<svg xmlns="http://www.w3.org/2000/svg" width="396" height="99.097" viewBox="0 0 216.188 54.1"><path fill="#347d39" d="M72.243 46.258c.785.496 1.027 1.373 1.016 2.262-.012.739-.116 1.477-.843 2.02-.612.473-1.373.369-2.1.369v2.931c0 .347-1.316.347-1.316 0v-7.097c0-.543.012-.716.82-.727h1.188c.416 0 .877.011 1.235.242zm-.3 2.504a6.492 6.492 0 0 0-.012-.808c-.046-.427-.207-.646-.738-.646h-.877v2.285h.992c.531 0 .612-.646.635-.83zm6.66-2.481v7.56c0 .346-1.328.346-1.328 0v-3.094h-1.489v3.093c0 .347-1.316.347-1.316 0v-7.559c0-.346 1.316-.346 1.316 0v3.162h1.489v-3.162c0-.346 1.327-.346 1.327 0zm4.858-.023c.785.496 1.027 1.373 1.015 2.262-.011.739-.115 1.477-.842 2.02-.612.473-1.373.369-2.1.369v2.931c0 .347-1.316.347-1.316 0v-7.097c0-.543.011-.716.82-.727h1.188c.415 0 .877.011 1.235.242zm-.3 2.504a6.492 6.492 0 0 0-.012-.808c-.046-.427-.207-.646-.738-.646h-.877v2.285h.992c.53 0 .612-.646.635-.83zm10.121-2.481v7.56c0 .346-1.327.346-1.327 0v-3.094h-1.489v3.093c0 .347-1.315.347-1.315 0v-7.559c0-.346 1.315-.346 1.315 0v3.162h1.489v-3.162c0-.346 1.327-.346 1.327 0zm1.408-.265h4.594c.346 0 .346 1.292 0 1.292l-1.64.023v6.51c0 .346-1.315.346-1.315 0v-6.51l-1.639-.023c-.346 0-.346-1.292 0-1.292zm12.591.438v7.386c0 .347-1.304.347-1.304 0V50.01c-1.338 3.727-1.362 3.774-1.385 3.82-.15.346-1.027.346-1.177 0-.023-.046-.046-.093-1.396-3.866v3.877c0 .347-1.316.347-1.316 0v-7.386c0-.565 1.166-.542 1.281-.23l2.02 5.308 1.985-5.309c.115-.311 1.292-.346 1.292.231zm2.932 6.336h1.662c.23 0 .23 1.304 0 1.304h-2.32c-.658 0-.658 0-.658-.635v-7.178c0-.23 1.316-.23 1.316 0v6.51zm9.925-6.532c.785.496 1.027 1.373 1.016 2.262-.012.739-.116 1.477-.843 2.02-.611.473-1.373.369-2.1.369v2.931c0 .347-1.316.347-1.316 0v-7.097c0-.543.012-.716.82-.727h1.188c.416 0 .877.011 1.235.242zm-.3 2.504a6.492 6.492 0 0 0-.012-.808c-.046-.427-.207-.646-.738-.646h-.877v2.285h.992c.531 0 .612-.646.635-.83zm5.47-2.504 1.2 7.328c.093.577-1.211.635-1.28.22l-.231-1.385h-1.35l-.231 1.385c-.058.346-1.374.357-1.281-.22l1.211-7.328c.058-.346 1.916-.312 1.962 0zm-.53 4.859-.45-2.759-.462 2.759h.912zm7.443 2.32c.243.576-1.05.853-1.2.507l-.069-.161c-.38-.912-.796-1.95-1.177-2.874h-.566v2.931c0 .347-1.315.347-1.315 0v-7.097c0-.543.011-.716.819-.727h1.189c.415 0 .877.011 1.235.242.784.496 1.027 1.373 1.015 2.262-.011.739-.115 1.477-.842 2.02-.081.046-.15.092-.22.138.37.877.774 1.881 1.131 2.758zm-1.384-4.675a6.492 6.492 0 0 0-.012-.808c-.046-.427-.208-.646-.739-.646h-.877v2.285h.993c.53 0 .611-.646.635-.83zm6.67 3.266a1.928 1.928 0 0 1-.67 1.582c-.091.069-.184.15-.288.207s-.219.104-.323.15c-.346.15-.762.162-1.12.07a1.716 1.716 0 0 1-.519-.22 1.758 1.758 0 0 1-.427-.346 1.846 1.846 0 0 1-.323-.462c-.046-.103-.104-.219-.138-.334a4.147 4.147 0 0 1-.058-.531c0-.346 1.293-.346 1.293 0 0 .288.45 1.062 1.142.37.289-.416.023-.89-.23-1.236-.393-.484-.9-.854-1.316-1.315-.243-.266-.485-.566-.635-.9-.08-.185-.15-.37-.196-.578-.173-.958.127-2.666 2.216-2.47 1.05.104 1.511 1.005 1.511 1.616 0 .347-1.315.347-1.315 0 0-.461-1.304-.52-1.143.497.023.103.046.207.093.311.069.15.15.277.242.404.115.15.23.277.37.404.507.496 1.084.946 1.453 1.581.22.37.347.773.381 1.2zm2.7.75h1.651c.346 0 .346 1.316 0 1.316h-2.227c-.739 0-.739 0-.739-.623v-6.832c0-.623 0-.623.704-.635l2.25.012c.347 0 .347 1.315 0 1.315h-1.638v2.1h1.154c.346 0 .346 1.328 0 1.328h-1.154v2.02zm7.86.658c.243.577-1.05.854-1.2.508l-.07-.161c-.38-.912-.796-1.95-1.176-2.874h-.566v2.931c0 .347-1.316.347-1.316 0v-7.097c0-.543.012-.716.82-.727h1.189c.415 0 .877.011 1.234.242.785.496 1.028 1.373 1.016 2.262-.012.739-.115 1.477-.842 2.02-.081.046-.15.092-.22.138.37.877.773 1.881 1.131 2.758zm-1.385-4.674a6.492 6.492 0 0 0-.011-.808c-.046-.427-.208-.646-.739-.646h-.877v2.285h.993c.53 0 .611-.646.634-.83zM18.775 28.037c-.042 4.024-3.06 7.544-7.166 7.544H0V.419h11.609c4.107.042 7.166 3.646 7.166 7.67v19.948zm-6.412-.084V8.214c0-1.55-1.215-2.682-2.472-2.682H6.58v25.02h3.269c1.383 0 2.514-1.216 2.514-2.599zm28.457-20.2v20.494c0 4.61-3.437 7.753-7.083 7.753h-4.484c-3.646 0-7.083-3.101-7.083-7.753V7.753C22.17 3.143 25.648 0 29.295 0h4.442c3.604.042 7.083 3.185 7.083 7.753zm-12.364 2.808v15.716c0 .796.042 1.383.126 2.389.042 1.718 1.174 2.137 2.64 2.137 1.635 0 2.976-.042 3.227-2.137.042-1.048.084-2.096.084-3.143V8.969c0-.503-.042-1.048-.042-1.551-.042-1.3-.964-2.096-2.011-2.221 0-.042-.839-.042-.88-.042-3.06 0-3.102 1.383-3.102 3.814-.042.502-.042 1.047-.042 1.592zm34.953 5.616-3.646 12.489h-5.197l-3.646-12.49v19.405H44.59V.419h6.58l5.993 18.86L63.2.418h6.538v35.162h-6.328V16.177z"/><g xmlns="http://www.w3.org/2000/svg" fill="#347d39"><path d="M100.875 16.875h-24.75c-.619 0-1.125.506-1.125 1.125v11.25c0 .619.506 1.125 1.125 1.125h24.75c.62 0 1.125-.506 1.125-1.125V18c0-.619-.505-1.125-1.125-1.125zm-19.258 9.567a.55.55 0 0 1-.558.558c-.324 0-.612-.243-.612-.558v-1.969h-2.931v1.969a.542.542 0 0 1-.55.558c-.404 0-.637-.243-.637-.558v-5.109c0-.324.234-.558.638-.558.314 0 .548.234.548.558v1.961h2.932v-1.96c0-.325.288-.559.612-.559.315 0 .558.234.558.558v5.109zm5.828-4.542h-1.493v4.542c0 .782-1.188.801-1.188 0V21.9H83.19c-.783 0-.783-1.15 0-1.15h4.254c.8-.002.8 1.15 0 1.15zm7.792 4.479c0 .397-.254.621-.54.621-.323 0-.577-.224-.577-.621v-3.328l-1.494 1.89c-.322.396-.726.396-1.024 0l-1.34-1.89v3.328c0 .397-.324.621-.647.621-.288 0-.54-.224-.54-.621v-5.064a.6.6 0 0 1 .54-.622c.26 0 .413.154.566.325l1.98 2.671 2.05-2.77c.297-.369 1.026-.226 1.026.396v5.064zm5.108.621h-2.977c-.313 0-.567-.224-.567-.549v-5.135c0-.296.254-.548.567-.548a.55.55 0 0 1 .533.549v4.506h2.445c.88 0 .9 1.177 0 1.177z"/><path d="m105.375 8.534-7.41-7.409C97.316.472 96.173 0 95.25 0H82.875A3.38 3.38 0 0 0 79.5 3.375v11.25a1.124 1.124 0 1 0 2.25 0V3.375c0-.62.504-1.125 1.125-1.125H93a2.25 2.25 0 0 1 2.25 2.25v4.219a2.54 2.54 0 0 0 2.531 2.531H102a2.25 2.25 0 0 1 2.25 2.25v19.125c0 .62-.503 1.125-1.125 1.125h-20.25a1.126 1.126 0 0 1-1.125-1.125 1.124 1.124 0 1 0-2.25 0A3.38 3.38 0 0 0 82.875 36h20.25a3.38 3.38 0 0 0 3.375-3.375V11.25c0-.921-.472-2.064-1.125-2.716z"/></g><path fill="#347d39" d="M125.437 14.023v5.484h-5.944v16.032H112V.461h16.953v5.525l-9.46-.042v8.08h5.944zm2.679-12.725h-15.279v33.404h5.819V18.67h5.944v-3.81h-5.944V5.108l9.46.042V1.298zM138.456 36c-3.6.041-7.284-3.307-7.284-7.786V7.786c0-4.353 3.6-7.744 7.074-7.786h4.73c3.516-.041 7.242 3.391 7.242 7.786l.042 20.428c0 4.479-3.726 7.827-7.284 7.786h-4.52zm-6.447-7.786c0 3.6 2.846 6.948 6.446 6.948h4.521c3.558 0 6.446-3.39 6.446-6.948l-.041-20.428c0-3.516-2.889-6.948-6.405-6.948h-4.73c-3.39 0-6.237 3.516-6.237 6.948v20.428zm8.288 2.553c-1.632 0-2.553-1.004-2.553-2.679V11.093c0-.335-.042-.837-.042-1.381a8.63 8.63 0 0 1 .042-1.8c.125-1.172.67-2.763 2.511-2.763h.921c1.59 0 2.512 1.549 2.512 2.721v20.093c0 2.386-1.382 2.804-3.39 2.804zm-1.716-2.804c-.084 1.297.67 2.009 1.549 1.967h.083c1.55 0 2.554-.084 2.638-1.967 0-1.047-.042-2.052 0-3.056V9.587c0-.503-.042-1.047 0-1.591.041-1.173-.796-1.968-1.675-2.01h-.92c-.88 0-1.759.796-1.675 2.01.042.544 0 1.088 0 1.59v16.242c-.042.67 0 1.13 0 2.135zm22.478-5.568V35.54h-7.45V.461h10.046c.586 0 1.172-.042 1.716-.042.628 0 1.256.084 1.842.251 2.93.837 5.609 3.726 5.525 7.367v1.55c0 1.8-.042 3.6 0 5.4.084 2.762-1.423 5.232-3.265 6.571l4.521 13.981h-7.618l-4.019-13.102c-.46-.042-.879-.042-1.298-.042zm-.837-.837 2.721.042 4.06 13.102h5.819l-4.312-13.437.46-.377c1.8-1.297 2.931-3.516 2.931-5.734V8.037c0-3.6-2.888-6.78-6.53-6.78l-10.925.041v33.404h5.776V21.558zm0-16.032h3.516c1.759 0 2.219 1.8 2.219 2.72v6.908c0 1.255-.544 2.679-2.01 2.679l-3.725-.042V5.526zm.837.837v10.59c1.005 0 1.926.042 2.889.042.92 0 1.172-1.088 1.172-1.841V8.247c.042-1.005-.586-1.926-1.382-1.884h-2.679zm27.167 22.353v-6.949h-2.302v-5.65l9.963.041V28.34c0 4.144-3.558 7.66-7.619 7.66-.544 0-1.088-.041-1.59-.041h-.712c-.377 0-.754 0-1.13.042h-1.047c-3.6.041-7.242-3.433-7.242-7.87V7.786c0-3.935 3.14-7.786 7.242-7.786h5.023c3.81 0 7.075 3.977 7.075 7.619v5.483h-7.66V10.55c0-.712-.043-1.423 0-2.135.125-1.34-.294-2.218-.963-2.386-.293-.042-.628-.042-.921-.042h-.67c-.712.084-1.423.544-1.549 1.298V28.13c.167 1.758.754 1.842 2.386 1.842h.167c.88 0 1.55-.46 1.55-1.256zm.837-20.72v4.27h5.986V7.618c0-3.265-2.637-6.321-5.86-6.74a11.418 11.418 0 0 0-1.716-.125c-.168 0-.335.042-.502.042-.796 0-1.633.042-2.386.042h-.796c-3.516 0-6.404 3.39-6.404 6.948V28.13c0 3.6 2.846 6.99 6.404 6.99l4.48.042c3.6 0 6.78-3.18 6.78-6.823V16.995l-8.288-.041v3.976h2.302v7.786c0 1.8-1.758 2.093-2.553 2.093-1.298 0-3.223-.042-3.223-2.679V7.284c0-1.59 1.758-2.135 3.056-2.135 2.009 0 2.72.963 2.72 2.847zm17.665 11.93v10.088h9.46v5.525h-16.91V.461h16.91v5.525l-9.46-.042v8.54h5.944v5.442h-5.944zm5.107-.838v-3.767h-5.944V5.107l9.46.042V1.298h-15.237v33.404h15.237v-3.851h-9.46V19.088h5.944z"/></svg>
